<?xml version="1.0" encoding="UTF-8" standalone="no"?>
<!-- Created with Inkscape (http://www.inkscape.org/) -->

<svg
   xmlns:dc="http://purl.org/dc/elements/1.1/"
   xmlns:cc="http://creativecommons.org/ns#"
   xmlns:rdf="http://www.w3.org/1999/02/22-rdf-syntax-ns#"
   xmlns:svg="http://www.w3.org/2000/svg"
   xmlns="http://www.w3.org/2000/svg"
   xmlns:sodipodi="http://sodipodi.sourceforge.net/DTD/sodipodi-0.dtd"
   xmlns:inkscape="http://www.inkscape.org/namespaces/inkscape"
   width="48"
   height="48"
   id="svg2"
   version="1.1"
   inkscape:version="0.48.4 r9939"
   sodipodi:docname="icon.svg"
   inkscape:export-filename="C:\Users\plyusnin\Sources\EMapTools\!res\icon\pics\icon-16.png"
   inkscape:export-xdpi="30"
   inkscape:export-ydpi="30">
  <defs
     id="defs4">
    <mask
       maskUnits="userSpaceOnUse"
       id="mask3808">
      <path
         style="font-size:medium;font-style:normal;font-variant:normal;font-weight:normal;font-stretch:normal;text-indent:0;text-align:start;text-decoration:none;line-height:normal;letter-spacing:normal;word-spacing:normal;text-transform:none;direction:ltr;block-progression:tb;writing-mode:lr-tb;text-anchor:start;baseline-shift:baseline;color:#000000;fill:#ffffff;fill-opacity:1;fill-rule:nonzero;stroke:none;stroke-width:2;marker:none;visibility:visible;display:inline;overflow:visible;enable-background:accumulate;font-family:Sans;-inkscape-font-specification:Sans"
         d="m 25.006973,1006.9419 c 11.035815,0 19.96875,8.933 19.96875,19.9688 0,11.0358 -8.932935,19.9687 -19.96875,19.9687 -11.035815,0 -19.9687497,-8.9329 -19.9687497,-19.9687 0,-11.0358 8.9329347,-19.9688 19.9687497,-19.9688 z"
         id="path3810"
         inkscape:connector-curvature="0"
         sodipodi:nodetypes="sssss" />
    </mask>
  </defs>
  <sodipodi:namedview
     id="base"
     pagecolor="#ffffff"
     bordercolor="#666666"
     borderopacity="1.0"
     inkscape:pageopacity="0.0"
     inkscape:pageshadow="2"
     inkscape:zoom="15.839192"
     inkscape:cx="24.486959"
     inkscape:cy="23.557279"
     inkscape:document-units="px"
     inkscape:current-layer="layer1"
     showgrid="true"
     inkscape:snap-global="false"
     inkscape:window-width="1920"
     inkscape:window-height="1017"
     inkscape:window-x="1912"
     inkscape:window-y="-8"
     inkscape:window-maximized="1">
    <inkscape:grid
       type="xygrid"
       id="grid2985"
       empspacing="5"
       visible="true"
       enabled="true"
       snapvisiblegridlinesonly="true" />
  </sodipodi:namedview>
  <metadata
     id="metadata7">
    <rdf:RDF>
      <cc:Work
         rdf:about="">
        <dc:format>image/svg+xml</dc:format>
        <dc:type
           rdf:resource="http://purl.org/dc/dcmitype/StillImage" />
        <dc:title></dc:title>
      </cc:Work>
    </rdf:RDF>
  </metadata>
  <g
     inkscape:label="Layer 1"
     inkscape:groupmode="layer"
     id="layer1"
     transform="translate(0,-1004.3622)">
    <path
       sodipodi:type="arc"
       style="fill:#df75c4;fill-opacity:1;stroke:#000000;stroke-width:2;stroke-linecap:round;stroke-linejoin:miter;stroke-miterlimit:4;stroke-opacity:1;stroke-dasharray:none"
       id="path3796"
       sodipodi:cx="24.180527"
       sodipodi:cy="23.061859"
       sodipodi:rx="20.960665"
       sodipodi:ry="20.960665"
       d="m 45.141191,23.061859 a 20.960665,20.960665 0 1 1 -41.921329,0 20.960665,20.960665 0 1 1 41.921329,0 z"
       transform="translate(-0.18052673,1005.3003)" />
    <g
       id="g3789"
       transform="translate(-1,1.4520941)"
       mask="url(#mask3808)">
      <path
         sodipodi:nodetypes="ccccccc"
         inkscape:connector-curvature="0"
         id="path3759"
         transform="translate(0,1004.3622)"
         d="m 25,8 -10,7 0,28.030458 10,0 10,0 L 35,15 z"
         style="fill:#000000;fill-opacity:1;stroke:#000000;stroke-width:2;stroke-linecap:butt;stroke-linejoin:miter;stroke-miterlimit:4;stroke-opacity:1;stroke-dasharray:none" />
      <path
         id="path2987"
         transform="translate(0,1004.3622)"
         d="m 25,8 -10,7 0,25 10,0 0,-32 z"
         style="fill:#000000;fill-opacity:1;stroke:none"
         inkscape:connector-curvature="0" />
      <path
         sodipodi:nodetypes="ccccc"
         style="fill:#ffffff;fill-opacity:1;stroke:none"
         d="m 35.006824,1019.3622 -10,-7 0,35.0305 10,0 z"
         id="path3757"
         inkscape:connector-curvature="0" />
      <path
         id="path3765"
         transform="translate(0,1004.3622)"
         d="M 25,8 15,15 15,18.75 25,13.03125 25,8 z m 0,9.96875 -10,4.78125 0,4.0625 10,-3.875 0,-4.96875 z m 0,10.09375 -10,2.90625 0,3.875 10,-1.9375 0,-4.84375 z M 25,38.03125 15,39 l 0,4.03125 10,0 0,-5 z"
         style="fill:#ffffff;fill-opacity:1;stroke:none"
         inkscape:connector-curvature="0" />
      <path
         inkscape:connector-curvature="0"
         style="fill:#000000;fill-opacity:1;stroke:none"
         d="m 25.038391,1012.3622 10,7 0,3.75 -10,-5.7187 0,-5.0313 z m 0,9.9688 10,4.7812 0,4.0625 -10,-3.875 0,-4.9687 z m 0,10.0937 10,2.9063 0,3.875 -10,-1.9375 0,-4.8438 z m 0,9.9688 10,0.9687 0,4.0313 -10,0 0,-5 z"
         id="path3787" />
    </g>
  </g>
</svg>
